<svg xmlns="http://www.w3.org/2000/svg" version="1.1" width="200" height="249"><path d="m 49,248 0,-4 37,0 0,-41 C 71.7,200.9 57.6,198.8 44.5,204.1 40.1,205.9 14,218.5 14,218.5 l 4.7,-15.2 -16.4,1.3 c 0,0 3.1,-3.5 12.8,-14.4 9.7,-10.9 25.5,-28.2 30.9,-44.8 5.1,-15.7 8.8,-20.9 19.6,-28.1 16.2,-9.7 18.3,-23.8 9,-37 -8.8,-13 -8.8,-25.7 0.5,-35.9 4.5,-4.9 10.3,-9.2 15.5,-9.1 L 90,248 z M 102.5,34.4 c 7.6,-0.5 11.5,4.2 17,4.5 1.4,0 6.7,-1.3 11.3,-3.6 0,0 50.4,-25.8 52,-26.3 1.6,-0.5 12.6,-7.8 13.9,-5.6 1.3,2.2 -7.5,9.3 -8.1,9.7 -0.7,0.4 -45,27.5 -45,27.5 -8.3,5.1 -15.3,11.7 -17.1,15.3 1.3,30 -14.7,20.1 -8.9,38.6 6.4,18.2 26.7,24.7 28,52.3 1.3,27.6 -16.1,51.9 -39.6,57.2 l 0,40 42,0 0,4 -46,0 z"/><path d="m100.4 57.9c0 1.8-1.5 3.3-3.3 3.3-1.8 0-3.3-1.5-3.3-3.3 0-1.8 1.5-3.3 3.3-3.3 1.8 0 3.3 1.5 3.3 3.3z"/></svg>
