<svg xmlns="http://www.w3.org/2000/svg" version="1.1" width="200" height="249"><path d="m48.5 247.9-0.1-3.6 37.8 0 0-41.8c-14.3-2.1-28.6-3.7-41.7 1.6-4.4 1.8-30.5 14.4-30.5 14.4l4.7-15.2-16.4 1.3c0 0 3.1-3.5 12.8-14.4 9.7-10.9 25.5-28.2 30.9-44.8 5.1-15.7 8.8-20.9 19.6-28.1 16.2-9.7 18.3-23.8 9-37-8.8-13-8.8-25.7 0.5-35.9 4.5-4.9 10.3-9.2 15.5-9.1L90.4 248.3zM102.5 34.4c7.6-0.5 11.5 4.2 17 4.5 1.4 0 6.7-1.3 11.3-3.6 0 0 50.4-25.8 52-26.3 1.6-0.5 12.6-7.8 13.9-5.6 1.3 2.2-7.5 9.3-8.1 9.7-0.7 0.4-45 27.5-45 27.5-8.3 5.1-15.3 11.7-17.1 15.3 1.3 30-14.7 20.1-8.9 38.6 6.4 18.2 26.7 24.7 28 52.3 1.3 27.6-16.1 50.8-39.6 56.1l0.5 41.5 41.7 0.3 0 3.2-46.2 0z"/><path d="m100.4 57.9c0 1.8-1.5 3.3-3.3 3.3-1.8 0-3.3-1.5-3.3-3.3 0-1.8 1.5-3.3 3.3-3.3 1.8 0 3.3 1.5 3.3 3.3z"/></svg>