<svg xmlns="http://www.w3.org/2000/svg" version="1.1" viewBox="0 0 200 200"><path d="m50,200-0.06-4,40-0.03-0.02-40c-10-2-30-4-40,2-4,2-30,10-30,10l5-20-20,1s3-3,10-10c10-10,30-30,30-40,5-20,9-20,20-30,20-10,20-20,9-40-9-10-9-30,0.5-40,5-5,10-9,20-9zm10-200c8-0.5,10,4,20,4,1,0,7-1,10-4,0,0,50-30,50-30,2-0.5,10-8,10-6,1,2-7,9-8,10-0.7,0.4-40,30-40,30-8,5-20,10-20,20,1,30-10,20-9,40,6,20,30,20,30,50,1,30-20,50-40,60l0.5,40,40,0.3-0.01,3h-50z"/><path d="m100,60c0,2-1,3-3,3s-3-1-3-3,1-3,3-3,3,1,3,3z"/></svg>