<?xml version="1.0" encoding="UTF-8" standalone="no"?>
<!-- Created with Inkscape (http://www.inkscape.org/) -->

<svg xmlns:dc="http://purl.org/dc/elements/1.1/" xmlns:cc="http://creativecommons.org/ns#" xmlns:rdf="http://www.w3.org/1999/02/22-rdf-syntax-ns#" xmlns:svg="http://www.w3.org/2000/svg" xmlns="http://www.w3.org/2000/svg" xmlns:sodipodi="http://sodipodi.sourceforge.net/DTD/sodipodi-0.dtd" xmlns:inkscape="http://www.inkscape.org/namespaces/inkscape" id="svg2985" version="1.1" inkscape:version="0.48.1 " width="200" height="249" sodipodi:docname="svg-logo.svg">
  <metadata id="metadata2991">
    <rdf:RDF>
      <cc:Work rdf:about="">
        <dc:format>image/svg+xml</dc:format>
        <dc:type rdf:resource="http://purl.org/dc/dcmitype/StillImage" />
        <dc:title />
      </cc:Work>
    </rdf:RDF>
  </metadata>
  <defs id="defs2989" />
  <sodipodi:namedview pagecolor="#ffffff" bordercolor="#666666" borderopacity="1" objecttolerance="10" gridtolerance="10" guidetolerance="10" inkscape:pageopacity="0" inkscape:pageshadow="2" inkscape:window-width="640" inkscape:window-height="480" id="namedview2987" showgrid="false" inkscape:zoom="1.5988718" inkscape:cx="283.43793" inkscape:cy="163.54594" inkscape:current-layer="svg2985" />
  <path style="fill:#000000" d="m 48.499997,247.88994 -0.05525,-3.57146 37.825323,-0.0255 -0.02095,-41.84897 c -14.25311,-2.06095 -28.591385,-3.71449 -41.749118,1.60342 -4.4215,1.79683 -30.5,14.39974 -30.5,14.39974 l 4.71053,-15.18001 -16.3943503,1.27231 c 0,0 3.0799692,-3.45911 12.8139203,-14.3913 9.733951,-10.93219 25.47956,-28.21059 30.8683,-44.75821 5.11108,-15.695 8.76152,-20.93954 19.59027,-28.14514 16.178461,-9.6721 18.282234,-23.832045 9.01116,-36.976728 -8.841088,-13.004666 -8.753972,-25.674315 0.53377,-35.907237 4.5466,-4.93248 10.317125,-9.185037 15.46763,-9.07042 L 90.418217,248.28295 z M 102.5,34.389943 c 7.56874,-0.481987 11.47892,4.180361 17.02336,4.5 1.42442,0 6.66505,-1.263731 11.28325,-3.598402 0,0 50.40004,-25.7998632 52.01631,-26.2961915 1.61627,-0.4963283 12.61586,-7.7916805 13.92204,-5.6223 1.30618,2.1693805 -7.47113,9.3032665 -8.14172,9.7147145 -0.67059,0.411448 -44.96447,27.490912 -44.96447,27.490912 -8.2673,5.054559 -15.26039,11.678884 -17.14528,15.323852 1.33289,29.962769 -14.73943,20.109385 -8.9398,38.570808 6.35796,18.180014 26.74671,24.742474 28.03348,52.305684 1.28677,27.56321 -16.1177,50.81777 -39.62774,56.11291 l 0.54057,41.49801 41.65977,0.29011 -0.0125,3.20989 -46.15633,0 z" id="path2995" inkscape:connector-curvature="0" sodipodi:nodetypes="cccccccczsccccccccszzzscczcccccc" />
  <path sodipodi:type="arc" style="fill:#000000;fill-opacity:1;stroke:none" id="path2997" sodipodi:cx="97.264252" sodipodi:cy="67.208984" sodipodi:rx="3.2992167" sodipodi:ry="3.2992167" d="m 100.56347,67.208984 a 3.2992167,3.2992167 0 1 1 -6.598435,0 3.2992167,3.2992167 0 1 1 6.598435,0 z" transform="translate(-0.19545032,-9.2643451)" />
</svg>
